ISO-10303-21;
HEADER;
FILE_DESCRIPTION (( 'STEP AP214' ),
    '1' );
FILE_NAME ('straw hat led 5mm.STEP',
    '2021-08-30T07:41:16',
    ( '' ),
    ( '' ),
    'SwSTEP 2.0',
    'SolidWorks 2020',
    '' );
FILE_SCHEMA (( 'AUTOMOTIVE_DESIGN' ));
ENDSEC;

DATA;
#1 = DIRECTION ( 'NONE',  ( 0.000000000000000000, 0.000000000000000000, 1.000000000000000000 ) ) ;
#2 = EDGE_LOOP ( 'NONE', ( #476, #582, #329, #667, #369 ) ) ;
#3 = DIRECTION ( 'NONE',  ( 0.000000000000000000, 0.000000000000000000, 1.000000000000000000 ) ) ;
#4 = EDGE_CURVE ( 'NONE', #613, #8, #124, .T. ) ;
#5 = AXIS2_PLACEMENT_3D ( 'NONE', #191, #85, #656 ) ;
#6 = CLOSED_SHELL ( 'NONE', ( #193, #320, #262, #303, #210, #625 ) ) ;
#7 = FACE_OUTER_BOUND ( 'NONE', #252, .T. ) ;
#8 = VERTEX_POINT ( 'NONE', #569 ) ;
#9 = SURFACE_STYLE_USAGE ( .BOTH. , #532 ) ;
#10 = PRODUCT ( 'straw hat led 5mm', 'straw hat led 5mm', '', ( #490 ) ) ;
#11 =( NAMED_UNIT ( * ) PLANE_ANGLE_UNIT ( ) SI_UNIT ( $, .RADIAN. ) );
#12 = CARTESIAN_POINT ( 'NONE',  ( 1.120000000000000107, 0.2399999999999999911, -27.00000000000000355 ) ) ;
#13 = CARTESIAN_POINT ( 'NONE',  ( 1.600000000000000089, -0.2399999999999999911, -27.00000000000000355 ) ) ;
#14 = EDGE_CURVE ( 'NONE', #266, #270, #485, .T. ) ;
#15 = CARTESIAN_POINT ( 'NONE',  ( 1.600000000000000089, 0.2399999999999999911, -25.00000000000000000 ) ) ;
#16 = CARTESIAN_POINT ( 'NONE',  ( 1.600000000000000089, -0.2399999999999999911, -25.00000000000000000 ) ) ;
#17 = STYLED_ITEM ( 'NONE', ( #454 ), #534 ) ;
#18 = AXIS2_PLACEMENT_3D ( 'NONE', #367, #199, #659 ) ;
#19 = CARTESIAN_POINT ( 'NONE',  ( 1.120000000000000107, 0.2399999999999999911, -27.00000000000000355 ) ) ;
#20 = VECTOR ( 'NONE', #145, 1000.000000000000000 ) ;
#21 = LINE ( 'NONE', #261, #543 ) ;
#22 = ORIENTED_EDGE ( 'NONE', *, *, #614, .T. ) ;
#23 = APPLICATION_PROTOCOL_DEFINITION ( 'draft international standard', 'automotive_design', 1998, #182 ) ;
#24 = LINE ( 'NONE', #492, #257 ) ;
#25 = ORIENTED_EDGE ( 'NONE', *, *, #344, .T. ) ;
#26 = FILL_AREA_STYLE ('',( #601 ) ) ;
#27 = DIRECTION ( 'NONE',  ( -0.000000000000000000, -0.000000000000000000, 1.000000000000000000 ) ) ;
#28 = ORIENTED_EDGE ( 'NONE', *, *, #309, .T. ) ;
#29 = ADVANCED_FACE ( 'NONE', ( #461 ), #110, .T. ) ;
#30 = STYLED_ITEM ( 'NONE', ( #546 ), #223 ) ;
#31 = LINE ( 'NONE', #439, #713 ) ;
#32 = CARTESIAN_POINT ( 'NONE',  ( 1.120000000000000107, -0.2399999999999999911, -25.00000000000000000 ) ) ;
#33 = ORIENTED_EDGE ( 'NONE', *, *, #52, .F. ) ;
#34 = VECTOR ( 'NONE', #603, 1000.000000000000000 ) ;
#35 = DIRECTION ( 'NONE',  ( 1.000000000000000000, 0.000000000000000000, 0.000000000000000000 ) ) ;
#36 = ORIENTED_EDGE ( 'NONE', *, *, #406, .T. ) ;
#37 = ADVANCED_FACE ( 'NONE', ( #494 ), #535, .F. ) ;
#38 = FACE_OUTER_BOUND ( 'NONE', #2, .T. ) ;
#39 = VERTEX_POINT ( 'NONE', #487 ) ;
#40 = CARTESIAN_POINT ( 'NONE',  ( 1.120000000000000107, 0.2399999999999999911, -27.00000000000000355 ) ) ;
#41 = CIRCLE ( 'NONE', #504, 2.400000000000000355 ) ;
#42 = ORIENTED_EDGE ( 'NONE', *, *, #416, .T. ) ;
#43 = AXIS2_PLACEMENT_3D ( 'NONE', #192, #664, #592 ) ;
#44 = DIRECTION ( 'NONE',  ( 0.000000000000000000, -0.000000000000000000, 1.000000000000000000 ) ) ;
#45 = CARTESIAN_POINT ( 'NONE',  ( 1.600000000000000089, -0.2399999999999999911, -27.00000000000000355 ) ) ;
#46 = VERTEX_POINT ( 'NONE', #251 ) ;
#47 = EDGE_CURVE ( 'NONE', #467, #527, #722, .T. ) ;
#48 = LINE ( 'NONE', #104, #588 ) ;
#49 = MANIFOLD_SOLID_BREP ( 'Ressalto-extrusão2[2]', #629 ) ;
#50 = CARTESIAN_POINT ( 'NONE',  ( 1.600000000000000089, 0.2399999999999999911, -25.00000000000000000 ) ) ;
#51 = CARTESIAN_POINT ( 'NONE',  ( 0.000000000000000000, 6.115764771659785414E-32, 1.500000000000000000 ) ) ;
#52 = EDGE_CURVE ( 'NONE', #285, #63, #268, .T. ) ;
#53 = DIRECTION ( 'NONE',  ( 1.000000000000000000, 0.000000000000000000, -0.000000000000000000 ) ) ;
#54 = CARTESIAN_POINT ( 'NONE',  ( -1.120000000000000107, -0.2399999999999999911, 0.000000000000000000 ) ) ;
#55 = EDGE_LOOP ( 'NONE', ( #698, #177, #380, #704 ) ) ;
#56 = VECTOR ( 'NONE', #372, 1000.000000000000000 ) ;
#57 = CARTESIAN_POINT ( 'NONE',  ( 1.600000000000000089, 0.2399999999999999911, -25.00000000000000000 ) ) ;
#58 = AXIS2_PLACEMENT_3D ( 'NONE', #247, #356, #515 ) ;
#59 = MECHANICAL_DESIGN_GEOMETRIC_PRESENTATION_REPRESENTATION (  '', ( #169 ), #457 ) ;
#60 = DIRECTION ( 'NONE',  ( -0.000000000000000000, 1.410199344472709828E-16, -1.000000000000000000 ) ) ;
#61 = VECTOR ( 'NONE', #27, 1000.000000000000000 ) ;
#62 = FACE_OUTER_BOUND ( 'NONE', #114, .T. ) ;
#63 = VERTEX_POINT ( 'NONE', #718 ) ;
#64 = DIRECTION ( 'NONE',  ( 0.000000000000000000, 1.000000000000000000, 0.000000000000000000 ) ) ;
#65 = VERTEX_POINT ( 'NONE', #547 ) ;
#66 = EDGE_CURVE ( 'NONE', #642, #732, #134, .T. ) ;
#67 = DIRECTION ( 'NONE',  ( 0.000000000000000000, 0.000000000000000000, -1.000000000000000000 ) ) ;
#68 = CARTESIAN_POINT ( 'NONE',  ( 0.000000000000000000, 6.115764771659785414E-32, 1.500000000000000000 ) ) ;
#69 = ORIENTED_EDGE ( 'NONE', *, *, #47, .T. ) ;
#70 = DIRECTION ( 'NONE',  ( 0.000000000000000000, -1.000000000000000000, 0.000000000000000000 ) ) ;
#71 = SURFACE_STYLE_FILL_AREA ( #646 ) ;
#72 = EDGE_LOOP ( 'NONE', ( #661, #520, #158, #604 ) ) ;
#73 = EDGE_CURVE ( 'NONE', #39, #102, #378, .T. ) ;
#74 =( NAMED_UNIT ( * ) SI_UNIT ( $, .STERADIAN. ) SOLID_ANGLE_UNIT ( ) );
#75 = DIRECTION ( 'NONE',  ( 0.000000000000000000, -0.000000000000000000, 1.000000000000000000 ) ) ;
#76 = CARTESIAN_POINT ( 'NONE',  ( -1.600000000000000089, -0.2399999999999999911, 0.000000000000000000 ) ) ;
#77 = CARTESIAN_POINT ( 'NONE',  ( 1.120000000000000107, 0.2399999999999999911, -25.00000000000000000 ) ) ;
#78 = FACE_OUTER_BOUND ( 'NONE', #725, .T. ) ;
#79 = ORIENTED_EDGE ( 'NONE', *, *, #371, .T. ) ;
#80 = AXIS2_PLACEMENT_3D ( 'NONE', #745, #1, #641 ) ;
#81 = VECTOR ( 'NONE', #293, 1000.000000000000000 ) ;
#82 = DIRECTION ( 'NONE',  ( -0.000000000000000000, -0.000000000000000000, 1.000000000000000000 ) ) ;
#83 = VECTOR ( 'NONE', #500, 1000.000000000000000 ) ;
#84 = DIRECTION ( 'NONE',  ( 1.000000000000000000, 1.224646799147353207E-16, 1.726996113368199769E-32 ) ) ;
#85 = DIRECTION ( 'NONE',  ( 0.000000000000000000, 0.000000000000000000, 1.000000000000000000 ) ) ;
#86 = DIRECTION ( 'NONE',  ( -1.000000000000000000, 0.000000000000000000, 0.000000000000000000 ) ) ;
#87 = DIRECTION ( 'NONE',  ( 0.000000000000000000, 1.000000000000000000, 0.000000000000000000 ) ) ;
#88 = ADVANCED_FACE ( 'NONE', ( #714 ), #648, .F. ) ;
#89 = VERTEX_POINT ( 'NONE', #587 ) ;
#90 = DIRECTION ( 'NONE',  ( 0.000000000000000000, 1.000000000000000000, 1.807003620809173892E-16 ) ) ;
#91 = LINE ( 'NONE', #433, #20 ) ;
#92 = EDGE_LOOP ( 'NONE', ( #333, #464, #373, #409 ) ) ;
#93 = VECTOR ( 'NONE', #351, 1000.000000000000000 ) ;
#94 = PLANE ( 'NONE',  #353 ) ;
#95 = ORIENTED_EDGE ( 'NONE', *, *, #513, .T. ) ;
#96 = PRESENTATION_LAYER_ASSIGNMENT (  '', '', ( #219 ) ) ;
#97 = EDGE_CURVE ( 'NONE', #102, #352, #608, .T. ) ;
#98 =( NAMED_UNIT ( * ) SI_UNIT ( $, .STERADIAN. ) SOLID_ANGLE_UNIT ( ) );
#99 = VERTEX_POINT ( 'NONE', #709 ) ;
#100 = PLANE ( 'NONE',  #561 ) ;
#101 = ORIENTED_EDGE ( 'NONE', *, *, #553, .F. ) ;
#102 = VERTEX_POINT ( 'NONE', #127 ) ;
#103 = CLOSED_SHELL ( 'NONE', ( #88, #558, #236, #691, #576, #142 ) ) ;
#104 = CARTESIAN_POINT ( 'NONE',  ( -1.120000000000000107, -0.2399999999999999911, -25.00000000000000000 ) ) ;
#105 = LINE ( 'NONE', #40, #117 ) ;
#106 = VERTEX_POINT ( 'NONE', #19 ) ;
#107 = ADVANCED_FACE ( 'NONE', ( #595 ), #364, .T. ) ;
#108 = FACE_OUTER_BOUND ( 'NONE', #72, .T. ) ;
#109 = LINE ( 'NONE', #54, #389 ) ;
#110 = PLANE ( 'NONE',  #627 ) ;
#111 = DIRECTION ( 'NONE',  ( 0.000000000000000000, 1.000000000000000000, 0.000000000000000000 ) ) ;
#112 = DIRECTION ( 'NONE',  ( 0.000000000000000000, 1.000000000000000000, 0.000000000000000000 ) ) ;
#113 = CARTESIAN_POINT ( 'NONE',  ( -1.600000000000000089, -0.2399999999999999911, 0.000000000000000000 ) ) ;
#114 = EDGE_LOOP ( 'NONE', ( #393, #150, #690, #508 ) ) ;
#115 = MECHANICAL_DESIGN_GEOMETRIC_PRESENTATION_REPRESENTATION (  '', ( #17 ), #326 ) ;
#116 = VECTOR ( 'NONE', #86, 1000.000000000000000 ) ;
#117 = VECTOR ( 'NONE', #35, 1000.000000000000000 ) ;
#118 = EDGE_CURVE ( 'NONE', #89, #39, #196, .T. ) ;
#119 = CARTESIAN_POINT ( 'NONE',  ( 1.120000000000000107, -0.2399999999999999911, -25.00000000000000000 ) ) ;
#120 = ORIENTED_EDGE ( 'NONE', *, *, #674, .F. ) ;
#121 = CARTESIAN_POINT ( 'NONE',  ( 1.120000000000000107, -0.2399999999999999911, -27.00000000000000355 ) ) ;
#122 = PRODUCT_RELATED_PRODUCT_CATEGORY ( 'part', '', ( #10 ) ) ;
#123 = CARTESIAN_POINT ( 'NONE',  ( -2.399999999999999467, 1.627882059609971011, 1.500000000000000000 ) ) ;
#124 = LINE ( 'NONE', #360, #399 ) ;
#125 =( NAMED_UNIT ( * ) PLANE_ANGLE_UNIT ( ) SI_UNIT ( $, .RADIAN. ) );
#126 = DIRECTION ( 'NONE',  ( 1.000000000000000000, 0.000000000000000000, -0.000000000000000000 ) ) ;
#127 = CARTESIAN_POINT ( 'NONE',  ( -1.120000000000000107, -0.2399999999999999911, -25.00000000000000000 ) ) ;
#128 = DIRECTION ( 'NONE',  ( 0.000000000000000000, -1.000000000000000000, -0.000000000000000000 ) ) ;
#129 = VECTOR ( 'NONE', #255, 1000.000000000000000 ) ;
#130 = CIRCLE ( 'NONE', #155, 2.400000000000000355 ) ;
#131 = DIRECTION ( 'NONE',  ( -0.000000000000000000, -1.000000000000000000, -0.000000000000000000 ) ) ;
#132 = CARTESIAN_POINT ( 'NONE',  ( 1.600000000000000089, 0.2399999999999999911, -25.00000000000000000 ) ) ;
#133 = ORIENTED_EDGE ( 'NONE', *, *, #66, .F. ) ;
#134 = LINE ( 'NONE', #15, #651 ) ;
#135 = DIRECTION ( 'NONE',  ( -1.000000000000000000, 0.000000000000000000, 0.000000000000000000 ) ) ;
#136 = ORIENTED_EDGE ( 'NONE', *, *, #118, .T. ) ;
#137 = SURFACE_STYLE_USAGE ( .BOTH. , #254 ) ;
#138 = PRESENTATION_STYLE_ASSIGNMENT (( #315 ) ) ;
#139 = CARTESIAN_POINT ( 'NONE',  ( -1.120000000000000107, -0.2399999999999999911, 0.000000000000000000 ) ) ;
#140 = VECTOR ( 'NONE', #694, 1000.000000000000000 ) ;
#141 = SURFACE_STYLE_FILL_AREA ( #663 ) ;
#142 = ADVANCED_FACE ( 'NONE', ( #652 ), #514, .F. ) ;
#143 = VECTOR ( 'NONE', #151, 1000.000000000000000 ) ;
#144 =( NAMED_UNIT ( * ) SI_UNIT ( $, .STERADIAN. ) SOLID_ANGLE_UNIT ( ) );
#145 = DIRECTION ( 'NONE',  ( -0.000000000000000000, -1.000000000000000000, -0.000000000000000000 ) ) ;
#146 = UNCERTAINTY_MEASURE_WITH_UNIT (LENGTH_MEASURE( 1.000000000000000082E-05 ), #332, 'distance_accuracy_value', 'NONE');
#147 =( NAMED_UNIT ( * ) SI_UNIT ( $, .STERADIAN. ) SOLID_ANGLE_UNIT ( ) );
#148 = FACE_OUTER_BOUND ( 'NONE', #552, .T. ) ;
#149 = CARTESIAN_POINT ( 'NONE',  ( 1.120000000000000107, 0.2399999999999999911, -27.00000000000000355 ) ) ;
#150 = ORIENTED_EDGE ( 'NONE', *, *, #447, .F. ) ;
#151 = DIRECTION ( 'NONE',  ( 0.000000000000000000, -1.000000000000000000, 0.000000000000000000 ) ) ;
#152 = FILL_AREA_STYLE ('',( #616 ) ) ;
#153 = VERTEX_POINT ( 'NONE', #462 ) ;
#154 = ADVANCED_FACE ( 'NONE', ( #171 ), #206, .T. ) ;
#155 = AXIS2_PLACEMENT_3D ( 'NONE', #657, #84, #544 ) ;
#156 = VECTOR ( 'NONE', #131, 1000.000000000000000 ) ;
#157 = CARTESIAN_POINT ( 'NONE',  ( 0.000000000000000000, 0.000000000000000000, -27.00000000000000355 ) ) ;
#158 = ORIENTED_EDGE ( 'NONE', *, *, #658, .F. ) ;
#159 = VECTOR ( 'NONE', #425, 1000.000000000000000 ) ;
#160 =( NAMED_UNIT ( * ) PLANE_ANGLE_UNIT ( ) SI_UNIT ( $, .RADIAN. ) );
#161 = ORIENTED_EDGE ( 'NONE', *, *, #66, .T. ) ;
#162 = SURFACE_STYLE_USAGE ( .BOTH. , #559 ) ;
#163 = ORIENTED_EDGE ( 'NONE', *, *, #553, .T. ) ;
#164 = DIRECTION ( 'NONE',  ( 1.000000000000000000, -0.000000000000000000, 0.000000000000000000 ) ) ;
#165 = EDGE_CURVE ( 'NONE', #242, #46, #31, .T. ) ;
#166 = DIRECTION ( 'NONE',  ( 0.000000000000000000, 1.000000000000000000, 1.807003620809173892E-16 ) ) ;
#167 = PRESENTATION_LAYER_ASSIGNMENT (  '', '', ( #30 ) ) ;
#168 = ORIENTED_EDGE ( 'NONE', *, *, #614, .F. ) ;
#169 = STYLED_ITEM ( 'NONE', ( #138 ), #49 ) ;
#170 = AXIS2_PLACEMENT_3D ( 'NONE', #660, #540, #135 ) ;
#171 = FACE_OUTER_BOUND ( 'NONE', #557, .T. ) ;
#172 = CARTESIAN_POINT ( 'NONE',  ( 0.000000000000000000, 0.000000000000000000, 0.000000000000000000 ) ) ;
#173 = ORIENTED_EDGE ( 'NONE', *, *, #669, .T. ) ;
#174 = DIRECTION ( 'NONE',  ( 0.000000000000000000, -1.000000000000000000, -0.000000000000000000 ) ) ;
#175 = PLANE ( 'NONE',  #258 ) ;
#176 = LINE ( 'NONE', #289, #665 ) ;
#177 = ORIENTED_EDGE ( 'NONE', *, *, #524, .F. ) ;
#178 = DIRECTION ( 'NONE',  ( 1.000000000000000000, -0.000000000000000000, 0.000000000000000000 ) ) ;
#179 = ADVANCED_FACE ( 'NONE', ( #744 ), #175, .F. ) ;
#180 = CARTESIAN_POINT ( 'NONE',  ( 0.000000000000000000, 0.000000000000000000, 1.500000000000000444 ) ) ;
#181 = ORIENTED_EDGE ( 'NONE', *, *, #658, .T. ) ;
#182 = APPLICATION_CONTEXT ( 'automotive_design' ) ;
#183 =( NAMED_UNIT ( * ) SI_UNIT ( $, .STERADIAN. ) SOLID_ANGLE_UNIT ( ) );
#184 = AXIS2_PLACEMENT_3D ( 'NONE', #550, #497, #272 ) ;
#185 = VECTOR ( 'NONE', #302, 1000.000000000000000 ) ;
#186 = CARTESIAN_POINT ( 'NONE',  ( 0.000000000000000000, 0.000000000000000000, 2.400000000000000799 ) ) ;
#187 = VERTEX_POINT ( 'NONE', #233 ) ;
#188 = PLANE ( 'NONE',  #459 ) ;
#189 = DIRECTION ( 'NONE',  ( 0.000000000000000000, 1.000000000000000000, 0.000000000000000000 ) ) ;
#190 =( LENGTH_UNIT ( ) NAMED_UNIT ( * ) SI_UNIT ( .MILLI., .METRE. ) );
#191 = CARTESIAN_POINT ( 'NONE',  ( 0.000000000000000000, 0.000000000000000000, 0.000000000000000000 ) ) ;
#192 = CARTESIAN_POINT ( 'NONE',  ( -1.120000000000000107, -0.2399999999999999911, -25.00000000000000000 ) ) ;
#193 = ADVANCED_FACE ( 'NONE', ( #693 ), #94, .F. ) ;
#194 = CYLINDRICAL_SURFACE ( 'NONE', #170, 2.899999999999999911 ) ;
#195 = VERTEX_POINT ( 'NONE', #456 ) ;
#196 = LINE ( 'NONE', #304, #518 ) ;
#197 = DIRECTION ( 'NONE',  ( -1.000000000000000000, 0.000000000000000000, 0.000000000000000000 ) ) ;
#198 = EDGE_CURVE ( 'NONE', #743, #527, #398, .T. ) ;
#199 = DIRECTION ( 'NONE',  ( 1.000000000000000000, 0.000000000000000000, -0.000000000000000000 ) ) ;
#200 = CARTESIAN_POINT ( 'NONE',  ( 1.600000000000000089, -0.2399999999999999911, 0.000000000000000000 ) ) ;
#201 = ORIENTED_EDGE ( 'NONE', *, *, #280, .T. ) ;
#202 = UNCERTAINTY_MEASURE_WITH_UNIT (LENGTH_MEASURE( 1.000000000000000082E-05 ), #190, 'distance_accuracy_value', 'NONE');
#203 = EDGE_CURVE ( 'NONE', #39, #153, #349, .T. ) ;
#204 = DIRECTION ( 'NONE',  ( 1.000000000000000000, -0.000000000000000000, -0.000000000000000000 ) ) ;
#205 =( GEOMETRIC_REPRESENTATION_CONTEXT ( 3 ) GLOBAL_UNCERTAINTY_ASSIGNED_CONTEXT ( ( #436 ) ) GLOBAL_UNIT_ASSIGNED_CONTEXT ( ( #482, #260, #147 ) ) REPRESENTATION_CONTEXT ( 'NONE', 'WORKASPACE' ) );
#206 = CYLINDRICAL_SURFACE ( 'NONE', #390, 2.400000000000000355 ) ;
#207 = CARTESIAN_POINT ( 'NONE',  ( 1.600000000000000089, 0.2399999999999999911, -27.00000000000000355 ) ) ;
#208 = ORIENTED_EDGE ( 'NONE', *, *, #416, .F. ) ;
#209 = LINE ( 'NONE', #327, #143 ) ;
#210 = ADVANCED_FACE ( 'NONE', ( #148 ), #517, .F. ) ;
#211 = EDGE_LOOP ( 'NONE', ( #444, #671, #239, #161 ) ) ;
#212 = DIRECTION ( 'NONE',  ( -1.000000000000000000, 0.000000000000000000, 0.000000000000000000 ) ) ;
#213 = ORIENTED_EDGE ( 'NONE', *, *, #267, .T. ) ;
#214 = MECHANICAL_DESIGN_GEOMETRIC_PRESENTATION_REPRESENTATION (  '', ( #219 ), #355 ) ;
#215 = CIRCLE ( 'NONE', #337, 2.399999999999999911 ) ;
#216 = AXIS2_PLACEMENT_3D ( 'NONE', #687, #44, #53 ) ;
#217 = SURFACE_STYLE_USAGE ( .BOTH. , #502 ) ;
#218 = ORIENTED_EDGE ( 'NONE', *, *, #97, .T. ) ;
#219 = STYLED_ITEM ( 'NONE', ( #754 ), #286 ) ;
#220 = EDGE_CURVE ( 'NONE', #347, #187, #414, .T. ) ;
#221 = CARTESIAN_POINT ( 'NONE',  ( -2.399999999999999467, 1.627882059609971011, 4.793933818400121005 ) ) ;
#222 = EDGE_LOOP ( 'NONE', ( #686, #133, #384, #69 ) ) ;
#223 = ADVANCED_BREP_SHAPE_REPRESENTATION ( 'straw hat led 5mm', ( #534, #554, #49, #286, #5 ), #205 ) ;
#224 = EDGE_CURVE ( 'NONE', #285, #106, #563, .T. ) ;
#225 = DIRECTION ( 'NONE',  ( 0.000000000000000000, -0.000000000000000000, 1.000000000000000000 ) ) ;
#226 = SURFACE_STYLE_FILL_AREA ( #152 ) ;
#227 = ORIENTED_EDGE ( 'NONE', *, *, #717, .T. ) ;
#228 = CARTESIAN_POINT ( 'NONE',  ( 0.000000000000000000, 0.000000000000000000, -25.00000000000000000 ) ) ;
#229 = CARTESIAN_POINT ( 'NONE',  ( -1.600000000000000089, 0.2399999999999999911, -25.00000000000000000 ) ) ;
#230 = DIRECTION ( 'NONE',  ( 1.000000000000000000, 0.000000000000000000, 0.000000000000000000 ) ) ;
#231 = VECTOR ( 'NONE', #264, 1000.000000000000000 ) ;
#232 = AXIS2_PLACEMENT_3D ( 'NONE', #57, #128, #67 ) ;
#233 = CARTESIAN_POINT ( 'NONE',  ( 2.939152317953647599E-16, -2.400000000000000355, 2.399999999999999911 ) ) ;
#234 = DIRECTION ( 'NONE',  ( -0.000000000000000000, 1.410199344472709828E-16, -1.000000000000000000 ) ) ;
#235 = ORIENTED_EDGE ( 'NONE', *, *, #499, .F. ) ;
#236 = ADVANCED_FACE ( 'NONE', ( #568 ), #381, .F. ) ;
#237 = CARTESIAN_POINT ( 'NONE',  ( -2.399999999999999467, 1.627882059609971011, 0.000000000000000000 ) ) ;
#238 = DIRECTION ( 'NONE',  ( 0.000000000000000000, 1.000000000000000000, 1.807003620809173892E-16 ) ) ;
#239 = ORIENTED_EDGE ( 'NONE', *, *, #280, .F. ) ;
#240 = CARTESIAN_POINT ( 'NONE',  ( 1.600000000000000089, -0.2399999999999999911, -25.00000000000000000 ) ) ;
#241 = FACE_OUTER_BOUND ( 'NONE', #683, .T. ) ;
#242 = VERTEX_POINT ( 'NONE', #731 ) ;
#243 = VECTOR ( 'NONE', #522, 1000.000000000000000 ) ;
#244 = CARTESIAN_POINT ( 'NONE',  ( -1.600000000000000089, -0.2399999999999999911, -25.00000000000000000 ) ) ;
#245 = AXIS2_PLACEMENT_3D ( 'NONE', #417, #359, #526 ) ;
#246 = AXIS2_PLACEMENT_3D ( 'NONE', #510, #164, #628 ) ;
#247 = CARTESIAN_POINT ( 'NONE',  ( 0.000000000000000000, 6.115764771659785414E-32, 1.500000000000000000 ) ) ;
#248 = ORIENTED_EDGE ( 'NONE', *, *, #669, .F. ) ;
#249 = EDGE_CURVE ( 'NONE', #638, #242, #209, .T. ) ;
#250 = CARTESIAN_POINT ( 'NONE',  ( 1.120000000000000107, -0.2399999999999999911, 0.000000000000000000 ) ) ;
#251 = CARTESIAN_POINT ( 'NONE',  ( -2.399999999999999467, -1.627882059609971011, 0.000000000000000000 ) ) ;
#252 = EDGE_LOOP ( 'NONE', ( #387, #626, #610, #319 ) ) ;
#253 = PRODUCT_DEFINITION ( 'UNKNOWN', '', #424, #662 ) ;
#254 = SURFACE_SIDE_STYLE ('',( #141 ) ) ;
#255 = DIRECTION ( 'NONE',  ( -0.000000000000000000, -0.000000000000000000, 1.000000000000000000 ) ) ;
#256 = DIRECTION ( 'NONE',  ( 0.000000000000000000, -1.000000000000000000, 0.000000000000000000 ) ) ;
#257 = VECTOR ( 'NONE', #204, 1000.000000000000000 ) ;
#258 = AXIS2_PLACEMENT_3D ( 'NONE', #611, #225, #407 ) ;
#259 = VECTOR ( 'NONE', #719, 1000.000000000000000 ) ;
#260 =( NAMED_UNIT ( * ) PLANE_ANGLE_UNIT ( ) SI_UNIT ( $, .RADIAN. ) );
#261 = CARTESIAN_POINT ( 'NONE',  ( -2.399999999999999467, 1.627882059609971011, 4.793933818400121005 ) ) ;
#262 = ADVANCED_FACE ( 'NONE', ( #108 ), #345, .F. ) ;
#263 = ORIENTED_EDGE ( 'NONE', *, *, #383, .F. ) ;
#264 = DIRECTION ( 'NONE',  ( -0.000000000000000000, -0.000000000000000000, 1.000000000000000000 ) ) ;
#265 = DIRECTION ( 'NONE',  ( -1.000000000000000000, 0.000000000000000000, 0.000000000000000000 ) ) ;
#266 = VERTEX_POINT ( 'NONE', #287 ) ;
#267 = EDGE_CURVE ( 'NONE', #467, #642, #442, .T. ) ;
#268 = LINE ( 'NONE', #310, #231 ) ;
#269 = LINE ( 'NONE', #609, #56 ) ;
#270 = VERTEX_POINT ( 'NONE', #385 ) ;
#271 = VECTOR ( 'NONE', #440, 1000.000000000000000 ) ;
#272 = DIRECTION ( 'NONE',  ( 0.000000000000000000, -0.000000000000000000, 1.000000000000000000 ) ) ;
#273 = ORIENTED_EDGE ( 'NONE', *, *, #513, .F. ) ;
#274 = VERTEX_POINT ( 'NONE', #742 ) ;
#275 = EDGE_LOOP ( 'NONE', ( #556, #25, #36, #120, #695, #323 ) ) ;
#276 = EDGE_CURVE ( 'NONE', #102, #503, #48, .T. ) ;
#277 = CIRCLE ( 'NONE', #58, 2.400000000000000355 ) ;
#278 = ORIENTED_EDGE ( 'NONE', *, *, #220, .F. ) ;
#279 = CIRCLE ( 'NONE', #702, 2.899999999999999911 ) ;
#280 = EDGE_CURVE ( 'NONE', #642, #195, #650, .T. ) ;
#281 = DIRECTION ( 'NONE',  ( -1.000000000000000000, 0.000000000000000000, 0.000000000000000000 ) ) ;
#282 = ORIENTED_EDGE ( 'NONE', *, *, #73, .F. ) ;
#283 = DIRECTION ( 'NONE',  ( -0.000000000000000000, -0.000000000000000000, -1.000000000000000000 ) ) ;
#284 = DIRECTION ( 'NONE',  ( 0.000000000000000000, 0.000000000000000000, 1.000000000000000000 ) ) ;
#285 = VERTEX_POINT ( 'NONE', #121 ) ;
#286 = MANIFOLD_SOLID_BREP ( 'Ressalto-extrusão3', #103 ) ;
#287 = CARTESIAN_POINT ( 'NONE',  ( 2.939152317953647599E-16, -2.400000000000000355, 1.500000000000000000 ) ) ;
#288 = ADVANCED_FACE ( 'NONE', ( #692 ), #188, .F. ) ;
#289 = CARTESIAN_POINT ( 'NONE',  ( 1.600000000000000089, -0.2399999999999999911, -25.00000000000000000 ) ) ;
#290 = ORIENTED_EDGE ( 'NONE', *, *, #324, .F. ) ;
#291 = PLANE ( 'NONE',  #428 ) ;
#292 = AXIS2_PLACEMENT_3D ( 'NONE', #305, #362, #589 ) ;
#293 = DIRECTION ( 'NONE',  ( 0.000000000000000000, 1.000000000000000000, 0.000000000000000000 ) ) ;
#294 = PLANE ( 'NONE',  #80 ) ;
#295 = VERTEX_POINT ( 'NONE', #696 ) ;
#296 = CARTESIAN_POINT ( 'NONE',  ( 0.000000000000000000, 0.000000000000000000, 1.500000000000000000 ) ) ;
#297 = PLANE ( 'NONE',  #245 ) ;
#298 = ORIENTED_EDGE ( 'NONE', *, *, #203, .T. ) ;
#299 = CARTESIAN_POINT ( 'NONE',  ( 1.600000000000000089, -0.2399999999999999911, -27.00000000000000355 ) ) ;
#300 = CARTESIAN_POINT ( 'NONE',  ( 1.120000000000000107, 0.2399999999999999911, -25.00000000000000000 ) ) ;
#301 = ORIENTED_EDGE ( 'NONE', *, *, #118, .F. ) ;
#302 = DIRECTION ( 'NONE',  ( -0.000000000000000000, -1.000000000000000000, -0.000000000000000000 ) ) ;
#303 = ADVANCED_FACE ( 'NONE', ( #422 ), #348, .F. ) ;
#304 = CARTESIAN_POINT ( 'NONE',  ( -1.120000000000000107, 0.2399999999999999911, -25.00000000000000000 ) ) ;
#305 = CARTESIAN_POINT ( 'NONE',  ( 0.000000000000000000, -1.269179410025438747E-16, 2.400000000000000355 ) ) ;
#306 = ORIENTED_EDGE ( 'NONE', *, *, #220, .T. ) ;
#307 = SURFACE_SIDE_STYLE ('',( #491 ) ) ;
#308 = DIRECTION ( 'NONE',  ( -0.000000000000000000, -0.000000000000000000, -1.000000000000000000 ) ) ;
#309 = EDGE_CURVE ( 'NONE', #187, #347, #606, .T. ) ;
#310 = CARTESIAN_POINT ( 'NONE',  ( 1.120000000000000107, -0.2399999999999999911, -27.00000000000000355 ) ) ;
#311 = CARTESIAN_POINT ( 'NONE',  ( 0.000000000000000000, 2.400000000000000355, 1.500000000000000888 ) ) ;
#312 = EDGE_LOOP ( 'NONE', ( #481, #168, #645, #446 ) ) ;
#313 = UNCERTAINTY_MEASURE_WITH_UNIT (LENGTH_MEASURE( 1.000000000000000082E-05 ), #735, 'distance_accuracy_value', 'NONE');
#314 = VECTOR ( 'NONE', #265, 1000.000000000000000 ) ;
#315 = SURFACE_STYLE_USAGE ( .BOTH. , #307 ) ;
#316 = CARTESIAN_POINT ( 'NONE',  ( -1.120000000000000107, -0.2399999999999999911, -25.00000000000000000 ) ) ;
#317 = VERTEX_POINT ( 'NONE', #13 ) ;
#318 = PLANE ( 'NONE',  #486 ) ;
#319 = ORIENTED_EDGE ( 'NONE', *, *, #52, .T. ) ;
#320 = ADVANCED_FACE ( 'NONE', ( #419 ), #291, .F. ) ;
#321 = CARTESIAN_POINT ( 'NONE',  ( 1.600000000000000089, -0.2399999999999999911, -25.00000000000000000 ) ) ;
#322 = LINE ( 'NONE', #149, #653 ) ;
#323 = ORIENTED_EDGE ( 'NONE', *, *, #649, .F. ) ;
#324 = EDGE_CURVE ( 'NONE', #274, #46, #521, .T. ) ;
#325 = AXIS2_PLACEMENT_3D ( 'NONE', #51, #516, #230 ) ;
#326 =( GEOMETRIC_REPRESENTATION_CONTEXT ( 3 ) GLOBAL_UNCERTAINTY_ASSIGNED_CONTEXT ( ( #146 ) ) GLOBAL_UNIT_ASSIGNED_CONTEXT ( ( #332, #685, #98 ) ) REPRESENTATION_CONTEXT ( 'NONE', 'WORKASPACE' ) );
#327 = CARTESIAN_POINT ( 'NONE',  ( -2.399999999999999467, 1.627882059609971011, 1.500000000000000000 ) ) ;
#328 = FILL_AREA_STYLE ('',( #565 ) ) ;
#329 = ORIENTED_EDGE ( 'NONE', *, *, #165, .F. ) ;
#330 = ADVANCED_FACE ( 'NONE', ( #586 ), #465, .F. ) ;
#331 = EDGE_CURVE ( 'NONE', #317, #99, #643, .T. ) ;
#332 =( LENGTH_UNIT ( ) NAMED_UNIT ( * ) SI_UNIT ( .MILLI., .METRE. ) );
#333 = ORIENTED_EDGE ( 'NONE', *, *, #344, .F. ) ;
#334 = EDGE_CURVE ( 'NONE', #46, #274, #279, .T. ) ;
#335 = CARTESIAN_POINT ( 'NONE',  ( 0.000000000000000000, 0.000000000000000000, 2.400000000000000799 ) ) ;
#336 = EDGE_LOOP ( 'NONE', ( #248, #28, #678, #737, #631 ) ) ;
#337 = AXIS2_PLACEMENT_3D ( 'NONE', #186, #594, #429 ) ;
#338 = LINE ( 'NONE', #45, #83 ) ;
#339 = EDGE_LOOP ( 'NONE', ( #163, #728, #357, #376 ) ) ;
#340 = PRODUCT_DEFINITION_SHAPE ( 'NONE', 'NONE',  #253 ) ;
#341 = DIRECTION ( 'NONE',  ( 1.000000000000000000, -0.000000000000000000, -0.000000000000000000 ) ) ;
#342 = CARTESIAN_POINT ( 'NONE',  ( 1.600000000000000089, 0.2399999999999999911, -27.00000000000000355 ) ) ;
#343 = ORIENTED_EDGE ( 'NONE', *, *, #426, .F. ) ;
#344 = EDGE_CURVE ( 'NONE', #242, #655, #677, .T. ) ;
#345 = PLANE ( 'NONE',  #246 ) ;
#346 = DIRECTION ( 'NONE',  ( 0.000000000000000000, 0.000000000000000000, 1.000000000000000000 ) ) ;
#347 = VERTEX_POINT ( 'NONE', #699 ) ;
#348 = PLANE ( 'NONE',  #232 ) ;
#349 = LINE ( 'NONE', #668, #542 ) ;
#350 = COLOUR_RGB ( '',1.000000000000000000, 1.000000000000000000, 1.000000000000000000 ) ;
#351 = DIRECTION ( 'NONE',  ( 0.000000000000000000, 1.000000000000000000, 0.000000000000000000 ) ) ;
#352 = VERTEX_POINT ( 'NONE', #244 ) ;
#353 = AXIS2_PLACEMENT_3D ( 'NONE', #321, #281, #748 ) ;
#354 = DIRECTION ( 'NONE',  ( 0.000000000000000000, 0.000000000000000000, 1.000000000000000000 ) ) ;
#355 =( GEOMETRIC_REPRESENTATION_CONTEXT ( 3 ) GLOBAL_UNCERTAINTY_ASSIGNED_CONTEXT ( ( #590 ) ) GLOBAL_UNIT_ASSIGNED_CONTEXT ( ( #477, #125, #183 ) ) REPRESENTATION_CONTEXT ( 'NONE', 'WORKASPACE' ) );
#356 = DIRECTION ( 'NONE',  ( 0.000000000000000000, 0.000000000000000000, 1.000000000000000000 ) ) ;
#357 = ORIENTED_EDGE ( 'NONE', *, *, #536, .T. ) ;
#358 = CARTESIAN_POINT ( 'NONE',  ( -1.600000000000000089, -0.2399999999999999911, -25.00000000000000000 ) ) ;
#359 = DIRECTION ( 'NONE',  ( 1.000000000000000000, -0.000000000000000000, 0.000000000000000000 ) ) ;
#360 = CARTESIAN_POINT ( 'NONE',  ( 1.120000000000000107, 0.2399999999999999911, -25.00000000000000000 ) ) ;
#361 = ADVANCED_FACE ( 'NONE', ( #710 ), #194, .T. ) ;
#362 = DIRECTION ( 'NONE',  ( -0.000000000000000000, 1.410199344472709828E-16, -1.000000000000000000 ) ) ;
#363 = CYLINDRICAL_SURFACE ( 'NONE', #701, 2.400000000000000355 ) ;
#364 = SPHERICAL_SURFACE ( 'NONE', #18, 2.400000000000000355 ) ;
#365 = DIRECTION ( 'NONE',  ( -0.000000000000000000, -0.000000000000000000, 1.000000000000000000 ) ) ;
#366 = VECTOR ( 'NONE', #197, 1000.000000000000000 ) ;
#367 = CARTESIAN_POINT ( 'NONE',  ( 0.000000000000000000, 0.000000000000000000, 2.400000000000000799 ) ) ;
#368 = LINE ( 'NONE', #200, #314 ) ;
#369 = ORIENTED_EDGE ( 'NONE', *, *, #406, .F. ) ;
#370 = UNCERTAINTY_MEASURE_WITH_UNIT (LENGTH_MEASURE( 1.000000000000000082E-05 ), #598, 'distance_accuracy_value', 'NONE');
#371 = EDGE_CURVE ( 'NONE', #295, #743, #368, .T. ) ;
#372 = DIRECTION ( 'NONE',  ( 0.000000000000000000, -1.000000000000000000, 0.000000000000000000 ) ) ;
#373 = ORIENTED_EDGE ( 'NONE', *, *, #334, .T. ) ;
#374 = CARTESIAN_POINT ( 'NONE',  ( 0.000000000000000000, 0.000000000000000000, 0.000000000000000000 ) ) ;
#375 = CARTESIAN_POINT ( 'NONE',  ( -1.120000000000000107, -0.2399999999999999911, 0.000000000000000000 ) ) ;
#376 = ORIENTED_EDGE ( 'NONE', *, *, #224, .T. ) ;
#377 = AXIS2_PLACEMENT_3D ( 'NONE', #697, #581, #752 ) ;
#378 = LINE ( 'NONE', #421, #156 ) ;
#379 = CARTESIAN_POINT ( 'NONE',  ( 1.120000000000000107, 0.2399999999999999911, 0.000000000000000000 ) ) ;
#380 = ORIENTED_EDGE ( 'NONE', *, *, #734, .F. ) ;
#381 = PLANE ( 'NONE',  #184 ) ;
#382 = DIRECTION ( 'NONE',  ( -0.000000000000000000, -0.000000000000000000, 1.000000000000000000 ) ) ;
#383 = EDGE_CURVE ( 'NONE', #63, #613, #548, .T. ) ;
#384 = ORIENTED_EDGE ( 'NONE', *, *, #267, .F. ) ;
#385 = CARTESIAN_POINT ( 'NONE',  ( 0.000000000000000000, 2.400000000000000355, 1.500000000000000000 ) ) ;
#386 = CARTESIAN_POINT ( 'NONE',  ( 1.600000000000000089, -0.2399999999999999911, -25.00000000000000000 ) ) ;
#387 = ORIENTED_EDGE ( 'NONE', *, *, #383, .T. ) ;
#388 = AXIS2_PLACEMENT_3D ( 'NONE', #358, #178, #410 ) ;
#389 = VECTOR ( 'NONE', #578, 1000.000000000000000 ) ;
#390 = AXIS2_PLACEMENT_3D ( 'NONE', #726, #402, #570 ) ;
#391 = VECTOR ( 'NONE', #212, 1000.000000000000000 ) ;
#392 = DIRECTION ( 'NONE',  ( 0.000000000000000000, 0.000000000000000000, -1.000000000000000000 ) ) ;
#393 = ORIENTED_EDGE ( 'NONE', *, *, #469, .F. ) ;
#394 = EDGE_CURVE ( 'NONE', #347, #270, #666, .T. ) ;
#395 = PLANE ( 'NONE',  #600 ) ;
#396 = ORIENTED_EDGE ( 'NONE', *, *, #276, .T. ) ;
#397 = ORIENTED_EDGE ( 'NONE', *, *, #524, .T. ) ;
#398 = LINE ( 'NONE', #636, #474 ) ;
#399 = VECTOR ( 'NONE', #401, 1000.000000000000000 ) ;
#400 = VECTOR ( 'NONE', #341, 1000.000000000000000 ) ;
#401 = DIRECTION ( 'NONE',  ( 1.000000000000000000, 0.000000000000000000, 0.000000000000000000 ) ) ;
#402 = DIRECTION ( 'NONE',  ( -0.000000000000000000, 1.410199344472709828E-16, -1.000000000000000000 ) ) ;
#403 = FACE_OUTER_BOUND ( 'NONE', #275, .T. ) ;
#404 = ORIENTED_EDGE ( 'NONE', *, *, #331, .T. ) ;
#405 = DIRECTION ( 'NONE',  ( 0.000000000000000000, 0.000000000000000000, -1.000000000000000000 ) ) ;
#406 = EDGE_CURVE ( 'NONE', #655, #638, #269, .T. ) ;
#407 = DIRECTION ( 'NONE',  ( 1.000000000000000000, 0.000000000000000000, -0.000000000000000000 ) ) ;
#408 = CARTESIAN_POINT ( 'NONE',  ( 1.600000000000000089, 0.2399999999999999911, -27.00000000000000355 ) ) ;
#409 = ORIENTED_EDGE ( 'NONE', *, *, #493, .F. ) ;
#410 = DIRECTION ( 'NONE',  ( 0.000000000000000000, 0.000000000000000000, -1.000000000000000000 ) ) ;
#411 =( GEOMETRIC_REPRESENTATION_CONTEXT ( 3 ) GLOBAL_UNCERTAINTY_ASSIGNED_CONTEXT ( ( #313 ) ) GLOBAL_UNIT_ASSIGNED_CONTEXT ( ( #735, #160, #507 ) ) REPRESENTATION_CONTEXT ( 'NONE', 'WORKASPACE' ) );
#412 = CARTESIAN_POINT ( 'NONE',  ( 0.000000000000000000, -1.914902267757679937E-16, 4.800000000000000711 ) ) ;
#413 = VERTEX_POINT ( 'NONE', #716 ) ;
#414 = CIRCLE ( 'NONE', #605, 2.400000000000000355 ) ;
#415 = DIRECTION ( 'NONE',  ( 0.000000000000000000, -1.000000000000000000, 0.000000000000000000 ) ) ;
#416 = EDGE_CURVE ( 'NONE', #8, #99, #434, .T. ) ;
#417 = CARTESIAN_POINT ( 'NONE',  ( 1.120000000000000107, -0.2399999999999999911, -27.00000000000000355 ) ) ;
#418 = VERTEX_POINT ( 'NONE', #612 ) ;
#419 = FACE_OUTER_BOUND ( 'NONE', #597, .T. ) ;
#420 = CARTESIAN_POINT ( 'NONE',  ( 1.600000000000000089, 0.2399999999999999911, 0.000000000000000000 ) ) ;
#421 = CARTESIAN_POINT ( 'NONE',  ( -1.120000000000000107, -0.2399999999999999911, -25.00000000000000000 ) ) ;
#422 = FACE_OUTER_BOUND ( 'NONE', #222, .T. ) ;
#423 = DIRECTION ( 'NONE',  ( 1.000000000000000000, -0.000000000000000000, -0.000000000000000000 ) ) ;
#424 = PRODUCT_DEFINITION_FORMATION_WITH_SPECIFIED_SOURCE ( 'ANY', '', #10, .NOT_KNOWN. ) ;
#425 = DIRECTION ( 'NONE',  ( 0.000000000000000000, 1.000000000000000000, 0.000000000000000000 ) ) ;
#426 = EDGE_CURVE ( 'NONE', #418, #743, #654, .T. ) ;
#427 = EDGE_LOOP ( 'NONE', ( #273, #708, #501 ) ) ;
#428 = AXIS2_PLACEMENT_3D ( 'NONE', #240, #111, #573 ) ;
#429 = DIRECTION ( 'NONE',  ( 0.000000000000000000, 0.000000000000000000, 1.000000000000000000 ) ) ;
#430 = LINE ( 'NONE', #375, #34 ) ;
#431 = EDGE_LOOP ( 'NONE', ( #585, #218, #512, #136 ) ) ;
#432 = DIRECTION ( 'NONE',  ( 1.000000000000000000, 0.000000000000000000, -0.000000000000000000 ) ) ;
#433 = CARTESIAN_POINT ( 'NONE',  ( 1.600000000000000089, -0.2399999999999999911, 0.000000000000000000 ) ) ;
#434 = LINE ( 'NONE', #132, #688 ) ;
#435 = ORIENTED_EDGE ( 'NONE', *, *, #681, .T. ) ;
#436 = UNCERTAINTY_MEASURE_WITH_UNIT (LENGTH_MEASURE( 1.000000000000000082E-05 ), #482, 'distance_accuracy_value', 'NONE');
#437 = PRESENTATION_LAYER_ASSIGNMENT (  '', '', ( #169 ) ) ;
#438 = EDGE_CURVE ( 'NONE', #352, #489, #484, .T. ) ;
#439 = CARTESIAN_POINT ( 'NONE',  ( -2.399999999999999467, -1.627882059609971011, 4.793933818400121005 ) ) ;
#440 = DIRECTION ( 'NONE',  ( -0.000000000000000000, -0.000000000000000000, 1.000000000000000000 ) ) ;
#441 = ORIENTED_EDGE ( 'NONE', *, *, #536, .F. ) ;
#442 = LINE ( 'NONE', #672, #400 ) ;
#443 = DIRECTION ( 'NONE',  ( -0.000000000000000000, 0.000000000000000000, 1.000000000000000000 ) ) ;
#444 = ORIENTED_EDGE ( 'NONE', *, *, #469, .T. ) ;
#445 = FACE_OUTER_BOUND ( 'NONE', #339, .T. ) ;
#446 = ORIENTED_EDGE ( 'NONE', *, *, #438, .T. ) ;
#447 = EDGE_CURVE ( 'NONE', #527, #732, #727, .T. ) ;
#448 = VECTOR ( 'NONE', #639, 1000.000000000000000 ) ;
#449 = EDGE_LOOP ( 'NONE', ( #680, #263, #235, #208 ) ) ;
#450 = PRESENTATION_STYLE_ASSIGNMENT (( #162 ) ) ;
#451 = EDGE_LOOP ( 'NONE', ( #572, #33, #441, #404 ) ) ;
#452 = DIRECTION ( 'NONE',  ( -1.000000000000000000, 0.000000000000000000, -0.000000000000000000 ) ) ;
#453 = EDGE_CURVE ( 'NONE', #413, #8, #488, .T. ) ;
#454 = PRESENTATION_STYLE_ASSIGNMENT (( #217 ) ) ;
#455 = ORIENTED_EDGE ( 'NONE', *, *, #203, .F. ) ;
#456 = CARTESIAN_POINT ( 'NONE',  ( 1.600000000000000089, -0.2399999999999999911, -25.00000000000000000 ) ) ;
#457 =( GEOMETRIC_REPRESENTATION_CONTEXT ( 3 ) GLOBAL_UNCERTAINTY_ASSIGNED_CONTEXT ( ( #202 ) ) GLOBAL_UNIT_ASSIGNED_CONTEXT ( ( #190, #483, #144 ) ) REPRESENTATION_CONTEXT ( 'NONE', 'WORKASPACE' ) );
#458 = EDGE_CURVE ( 'NONE', #106, #613, #322, .T. ) ;
#459 = AXIS2_PLACEMENT_3D ( 'NONE', #583, #174, #405 ) ;
#460 = CARTESIAN_POINT ( 'NONE',  ( -2.399999999999999467, 6.115764771659785414E-32, 1.500000000000000000 ) ) ;
#461 = FACE_OUTER_BOUND ( 'NONE', #55, .T. ) ;
#462 = CARTESIAN_POINT ( 'NONE',  ( -1.120000000000000107, 0.2399999999999999911, 0.000000000000000000 ) ) ;
#463 = LINE ( 'NONE', #119, #470 ) ;
#464 = ORIENTED_EDGE ( 'NONE', *, *, #165, .T. ) ;
#465 = PLANE ( 'NONE',  #388 ) ;
#466 = LINE ( 'NONE', #644, #140 ) ;
#467 = VERTEX_POINT ( 'NONE', #480 ) ;
#468 = DIRECTION ( 'NONE',  ( 1.000000000000000000, 0.000000000000000000, 0.000000000000000000 ) ) ;
#469 = EDGE_CURVE ( 'NONE', #732, #295, #91, .T. ) ;
#470 = VECTOR ( 'NONE', #64, 1000.000000000000000 ) ;
#471 = DIRECTION ( 'NONE',  ( 0.000000000000000000, -1.000000000000000000, 0.000000000000000000 ) ) ;
#472 = VECTOR ( 'NONE', #471, 1000.000000000000000 ) ;
#473 = ORIENTED_EDGE ( 'NONE', *, *, #14, .T. ) ;
#474 = VECTOR ( 'NONE', #112, 1000.000000000000000 ) ;
#475 = LINE ( 'NONE', #707, #530 ) ;
#476 = ORIENTED_EDGE ( 'NONE', *, *, #493, .T. ) ;
#477 =( LENGTH_UNIT ( ) NAMED_UNIT ( * ) SI_UNIT ( .MILLI., .METRE. ) );
#478 = ADVANCED_FACE ( 'NONE', ( #78 ), #318, .F. ) ;
#479 = CARTESIAN_POINT ( 'NONE',  ( -1.120000000000000107, -0.2399999999999999911, -25.00000000000000000 ) ) ;
#480 = CARTESIAN_POINT ( 'NONE',  ( 1.120000000000000107, 0.2399999999999999911, -25.00000000000000000 ) ) ;
#481 = ORIENTED_EDGE ( 'NONE', *, *, #734, .T. ) ;
#482 =( LENGTH_UNIT ( ) NAMED_UNIT ( * ) SI_UNIT ( .MILLI., .METRE. ) );
#483 =( NAMED_UNIT ( * ) PLANE_ANGLE_UNIT ( ) SI_UNIT ( $, .RADIAN. ) );
#484 = LINE ( 'NONE', #495, #61 ) ;
#485 = CIRCLE ( 'NONE', #325, 2.400000000000000355 ) ;
#486 = AXIS2_PLACEMENT_3D ( 'NONE', #316, #87, #551 ) ;
#487 = CARTESIAN_POINT ( 'NONE',  ( -1.120000000000000107, 0.2399999999999999911, -25.00000000000000000 ) ) ;
#488 = LINE ( 'NONE', #207, #259 ) ;
#489 = VERTEX_POINT ( 'NONE', #76 ) ;
#490 = PRODUCT_CONTEXT ( 'NONE', #182, 'mechanical' ) ;
#491 = SURFACE_STYLE_FILL_AREA ( #26 ) ;
#492 = CARTESIAN_POINT ( 'NONE',  ( -1.120000000000000107, 0.2399999999999999911, 0.000000000000000000 ) ) ;
#493 = EDGE_CURVE ( 'NONE', #655, #274, #21, .T. ) ;
#494 = FACE_OUTER_BOUND ( 'NONE', #720, .T. ) ;
#495 = CARTESIAN_POINT ( 'NONE',  ( -1.600000000000000089, -0.2399999999999999911, -25.00000000000000000 ) ) ;
#496 = VECTOR ( 'NONE', #723, 1000.000000000000000 ) ;
#497 = DIRECTION ( 'NONE',  ( 0.000000000000000000, 1.000000000000000000, 0.000000000000000000 ) ) ;
#498 = ORIENTED_EDGE ( 'NONE', *, *, #453, .T. ) ;
#499 = EDGE_CURVE ( 'NONE', #99, #63, #537, .T. ) ;
#500 = DIRECTION ( 'NONE',  ( -1.000000000000000000, 0.000000000000000000, 0.000000000000000000 ) ) ;
#501 = ORIENTED_EDGE ( 'NONE', *, *, #309, .F. ) ;
#502 = SURFACE_SIDE_STYLE ('',( #226 ) ) ;
#503 = VERTEX_POINT ( 'NONE', #139 ) ;
#504 = AXIS2_PLACEMENT_3D ( 'NONE', #68, #284, #750 ) ;
#505 = CLOSED_SHELL ( 'NONE', ( #154, #545, #361, #599, #706, #107, #635, #591 ) ) ;
#506 = VECTOR ( 'NONE', #593, 1000.000000000000000 ) ;
#507 =( NAMED_UNIT ( * ) SI_UNIT ( $, .STERADIAN. ) SOLID_ANGLE_UNIT ( ) );
#508 = ORIENTED_EDGE ( 'NONE', *, *, #371, .F. ) ;
#509 = EDGE_CURVE ( 'NONE', #503, #489, #430, .T. ) ;
#510 = CARTESIAN_POINT ( 'NONE',  ( 1.120000000000000107, -0.2399999999999999911, -25.00000000000000000 ) ) ;
#511 = SPHERICAL_SURFACE ( 'NONE', #715, 2.400000000000000355 ) ;
#512 = ORIENTED_EDGE ( 'NONE', *, *, #700, .T. ) ;
#513 = EDGE_CURVE ( 'NONE', #617, #187, #130, .T. ) ;
#514 = PLANE ( 'NONE',  #564 ) ;
#515 = DIRECTION ( 'NONE',  ( 1.000000000000000000, 0.000000000000000000, 0.000000000000000000 ) ) ;
#516 = DIRECTION ( 'NONE',  ( 0.000000000000000000, 0.000000000000000000, 1.000000000000000000 ) ) ;
#517 = PLANE ( 'NONE',  #216 ) ;
#518 = VECTOR ( 'NONE', #423, 1000.000000000000000 ) ;
#519 = LINE ( 'NONE', #408, #472 ) ;
#520 = ORIENTED_EDGE ( 'NONE', *, *, #47, .F. ) ;
#521 = LINE ( 'NONE', #237, #574 ) ;
#522 = DIRECTION ( 'NONE',  ( -0.000000000000000000, -0.000000000000000000, 1.000000000000000000 ) ) ;
#523 = ORIENTED_EDGE ( 'NONE', *, *, #334, .F. ) ;
#524 = EDGE_CURVE ( 'NONE', #65, #153, #24, .T. ) ;
#525 = FILL_AREA_STYLE_COLOUR ( '', #729 ) ;
#526 = DIRECTION ( 'NONE',  ( 0.000000000000000000, 0.000000000000000000, -1.000000000000000000 ) ) ;
#527 = VERTEX_POINT ( 'NONE', #379 ) ;
#528 = CARTESIAN_POINT ( 'NONE',  ( 0.000000000000000000, 0.000000000000000000, 0.000000000000000000 ) ) ;
#529 = LINE ( 'NONE', #229, #243 ) ;
#530 = VECTOR ( 'NONE', #189, 1000.000000000000000 ) ;
#531 = EDGE_LOOP ( 'NONE', ( #538, #675, #101, #541 ) ) ;
#532 = SURFACE_SIDE_STYLE ('',( #71 ) ) ;
#533 = APPLICATION_PROTOCOL_DEFINITION ( 'draft international standard', 'automotive_design', 1998, #724 ) ;
#534 = MANIFOLD_SOLID_BREP ( 'Corte-extrusão1', #505 ) ;
#535 = PLANE ( 'NONE',  #43 ) ;
#536 = EDGE_CURVE ( 'NONE', #317, #285, #338, .T. ) ;
#537 = LINE ( 'NONE', #16, #366 ) ;
#538 = ORIENTED_EDGE ( 'NONE', *, *, #4, .T. ) ;
#539 = DIRECTION ( 'NONE',  ( 0.000000000000000000, -0.000000000000000000, -1.000000000000000000 ) ) ;
#540 = DIRECTION ( 'NONE',  ( -0.000000000000000000, -0.000000000000000000, -1.000000000000000000 ) ) ;
#541 = ORIENTED_EDGE ( 'NONE', *, *, #458, .T. ) ;
#542 = VECTOR ( 'NONE', #575, 1000.000000000000000 ) ;
#543 = VECTOR ( 'NONE', #308, 1000.000000000000000 ) ;
#544 = DIRECTION ( 'NONE',  ( -1.224646799147352961E-16, 1.000000000000000000, 0.000000000000000000 ) ) ;
#545 = ADVANCED_FACE ( 'NONE', ( #682 ), #511, .T. ) ;
#546 = PRESENTATION_STYLE_ASSIGNMENT (( #137 ) ) ;
#547 = CARTESIAN_POINT ( 'NONE',  ( -1.600000000000000089, 0.2399999999999999911, 0.000000000000000000 ) ) ;
#548 = LINE ( 'NONE', #32, #159 ) ;
#549 = ORIENTED_EDGE ( 'NONE', *, *, #438, .F. ) ;
#550 = CARTESIAN_POINT ( 'NONE',  ( 1.600000000000000089, -0.2399999999999999911, -27.00000000000000355 ) ) ;
#551 = DIRECTION ( 'NONE',  ( 0.000000000000000000, -0.000000000000000000, 1.000000000000000000 ) ) ;
#552 = EDGE_LOOP ( 'NONE', ( #201, #624, #181, #213 ) ) ;
#553 = EDGE_CURVE ( 'NONE', #106, #413, #105, .T. ) ;
#554 = MANIFOLD_SOLID_BREP ( 'Ressalto-extrusão2[1]', #6 ) ;
#555 = DIRECTION ( 'NONE',  ( -1.000000000000000000, 0.000000000000000000, -0.000000000000000000 ) ) ;
#556 = ORIENTED_EDGE ( 'NONE', *, *, #249, .T. ) ;
#557 = EDGE_LOOP ( 'NONE', ( #306, #173, #473, #741 ) ) ;
#558 = ADVANCED_FACE ( 'NONE', ( #623 ), #676, .F. ) ;
#559 = SURFACE_SIDE_STYLE ('',( #630 ) ) ;
#560 = ORIENTED_EDGE ( 'NONE', *, *, #509, .T. ) ;
#561 = AXIS2_PLACEMENT_3D ( 'NONE', #221, #126, #633 ) ;
#562 = MECHANICAL_DESIGN_GEOMETRIC_PRESENTATION_REPRESENTATION (  '', ( #30 ), #602 ) ;
#563 = LINE ( 'NONE', #684, #81 ) ;
#564 = AXIS2_PLACEMENT_3D ( 'NONE', #228, #615, #452 ) ;
#565 = FILL_AREA_STYLE_COLOUR ( '', #640 ) ;
#566 = EDGE_LOOP ( 'NONE', ( #397, #455, #301, #22 ) ) ;
#567 = EDGE_CURVE ( 'NONE', #195, #418, #740, .T. ) ;
#568 = FACE_OUTER_BOUND ( 'NONE', #451, .T. ) ;
#569 = CARTESIAN_POINT ( 'NONE',  ( 1.600000000000000089, 0.2399999999999999911, -25.00000000000000000 ) ) ;
#570 = DIRECTION ( 'NONE',  ( 0.000000000000000000, 1.000000000000000000, 1.807003620809173892E-16 ) ) ;
#571 = DIRECTION ( 'NONE',  ( 1.000000000000000000, 0.000000000000000000, -0.000000000000000000 ) ) ;
#572 = ORIENTED_EDGE ( 'NONE', *, *, #499, .T. ) ;
#573 = DIRECTION ( 'NONE',  ( 0.000000000000000000, -0.000000000000000000, 1.000000000000000000 ) ) ;
#574 = VECTOR ( 'NONE', #415, 1000.000000000000000 ) ;
#575 = DIRECTION ( 'NONE',  ( -0.000000000000000000, -0.000000000000000000, 1.000000000000000000 ) ) ;
#576 = ADVANCED_FACE ( 'NONE', ( #445 ), #395, .T. ) ;
#577 = AXIS2_PLACEMENT_3D ( 'NONE', #296, #3, #468 ) ;
#578 = DIRECTION ( 'NONE',  ( -0.000000000000000000, -1.000000000000000000, -0.000000000000000000 ) ) ;
#579 = ORIENTED_EDGE ( 'NONE', *, *, #331, .F. ) ;
#580 = DIRECTION ( 'NONE',  ( 1.000000000000000000, 0.000000000000000000, 0.000000000000000000 ) ) ;
#581 = DIRECTION ( 'NONE',  ( 0.000000000000000000, -0.000000000000000000, 1.000000000000000000 ) ) ;
#582 = ORIENTED_EDGE ( 'NONE', *, *, #324, .T. ) ;
#583 = CARTESIAN_POINT ( 'NONE',  ( -1.120000000000000107, 0.2399999999999999911, -25.00000000000000000 ) ) ;
#584 = PLANE ( 'NONE',  #712 ) ;
#585 = ORIENTED_EDGE ( 'NONE', *, *, #73, .T. ) ;
#586 = FACE_OUTER_BOUND ( 'NONE', #312, .T. ) ;
#587 = CARTESIAN_POINT ( 'NONE',  ( -1.600000000000000089, 0.2399999999999999911, -25.00000000000000000 ) ) ;
#588 = VECTOR ( 'NONE', #365, 1000.000000000000000 ) ;
#589 = DIRECTION ( 'NONE',  ( 0.000000000000000000, 1.000000000000000000, 1.807003620809173892E-16 ) ) ;
#590 = UNCERTAINTY_MEASURE_WITH_UNIT (LENGTH_MEASURE( 1.000000000000000082E-05 ), #477, 'distance_accuracy_value', 'NONE');
#591 = ADVANCED_FACE ( 'NONE', ( #38 ), #100, .F. ) ;
#592 = DIRECTION ( 'NONE',  ( 0.000000000000000000, 0.000000000000000000, 1.000000000000000000 ) ) ;
#593 = DIRECTION ( 'NONE',  ( 1.000000000000000000, -0.000000000000000000, -0.000000000000000000 ) ) ;
#594 = DIRECTION ( 'NONE',  ( -1.000000000000000000, 0.000000000000000000, 0.000000000000000000 ) ) ;
#595 = FACE_OUTER_BOUND ( 'NONE', #427, .T. ) ;
#596 = CARTESIAN_POINT ( 'NONE',  ( 1.600000000000000089, 0.2399999999999999911, 0.000000000000000000 ) ) ;
#597 = EDGE_LOOP ( 'NONE', ( #79, #343, #751, #227 ) ) ;
#598 =( LENGTH_UNIT ( ) NAMED_UNIT ( * ) SI_UNIT ( .MILLI., .METRE. ) );
#599 = ADVANCED_FACE ( 'NONE', ( #403 ), #294, .T. ) ;
#600 = AXIS2_PLACEMENT_3D ( 'NONE', #157, #392, #621 ) ;
#601 = FILL_AREA_STYLE_COLOUR ( '', #619 ) ;
#602 =( GEOMETRIC_REPRESENTATION_CONTEXT ( 3 ) GLOBAL_UNCERTAINTY_ASSIGNED_CONTEXT ( ( #370 ) ) GLOBAL_UNIT_ASSIGNED_CONTEXT ( ( #598, #11, #74 ) ) REPRESENTATION_CONTEXT ( 'NONE', 'WORKASPACE' ) );
#603 = DIRECTION ( 'NONE',  ( -1.000000000000000000, 0.000000000000000000, 0.000000000000000000 ) ) ;
#604 = ORIENTED_EDGE ( 'NONE', *, *, #426, .T. ) ;
#605 = AXIS2_PLACEMENT_3D ( 'NONE', #632, #60, #90 ) ;
#606 = CIRCLE ( 'NONE', #292, 2.400000000000000355 ) ;
#607 = SHAPE_DEFINITION_REPRESENTATION ( #340, #223 ) ;
#608 = LINE ( 'NONE', #479, #116 ) ;
#609 = CARTESIAN_POINT ( 'NONE',  ( -2.399999999999999467, 1.627882059609971011, 1.500000000000000000 ) ) ;
#610 = ORIENTED_EDGE ( 'NONE', *, *, #224, .F. ) ;
#611 = CARTESIAN_POINT ( 'NONE',  ( 0.000000000000000000, 0.000000000000000000, -25.00000000000000000 ) ) ;
#612 = CARTESIAN_POINT ( 'NONE',  ( 1.120000000000000107, -0.2399999999999999911, -25.00000000000000000 ) ) ;
#613 = VERTEX_POINT ( 'NONE', #300 ) ;
#614 = EDGE_CURVE ( 'NONE', #89, #65, #529, .T. ) ;
#615 = DIRECTION ( 'NONE',  ( 0.000000000000000000, 0.000000000000000000, -1.000000000000000000 ) ) ;
#616 = FILL_AREA_STYLE_COLOUR ( '', #350 ) ;
#617 = VERTEX_POINT ( 'NONE', #412 ) ;
#618 = COLOUR_RGB ( '',1.000000000000000000, 1.000000000000000000, 1.000000000000000000 ) ;
#619 = COLOUR_RGB ( '',1.000000000000000000, 1.000000000000000000, 1.000000000000000000 ) ;
#620 = AXIS2_PLACEMENT_3D ( 'NONE', #342, #555, #443 ) ;
#621 = DIRECTION ( 'NONE',  ( -1.000000000000000000, 0.000000000000000000, -0.000000000000000000 ) ) ;
#622 = ORIENTED_EDGE ( 'NONE', *, *, #276, .F. ) ;
#623 = FACE_OUTER_BOUND ( 'NONE', #733, .T. ) ;
#624 = ORIENTED_EDGE ( 'NONE', *, *, #567, .T. ) ;
#625 = ADVANCED_FACE ( 'NONE', ( #62 ), #689, .T. ) ;
#626 = ORIENTED_EDGE ( 'NONE', *, *, #458, .F. ) ;
#627 = AXIS2_PLACEMENT_3D ( 'NONE', #374, #75, #432 ) ;
#628 = DIRECTION ( 'NONE',  ( 0.000000000000000000, 0.000000000000000000, -1.000000000000000000 ) ) ;
#629 = CLOSED_SHELL ( 'NONE', ( #37, #478, #330, #288, #179, #29 ) ) ;
#630 = SURFACE_STYLE_FILL_AREA ( #328 ) ;
#631 = ORIENTED_EDGE ( 'NONE', *, *, #649, .T. ) ;
#632 = CARTESIAN_POINT ( 'NONE',  ( 0.000000000000000000, -1.269179410025438747E-16, 2.400000000000000355 ) ) ;
#633 = DIRECTION ( 'NONE',  ( -0.000000000000000000, 0.000000000000000000, -1.000000000000000000 ) ) ;
#634 = ORIENTED_EDGE ( 'NONE', *, *, #97, .F. ) ;
#635 = ADVANCED_FACE ( 'NONE', ( #647 ), #363, .T. ) ;
#636 = CARTESIAN_POINT ( 'NONE',  ( 1.120000000000000107, -0.2399999999999999911, 0.000000000000000000 ) ) ;
#637 = LINE ( 'NONE', #113, #93 ) ;
#638 = VERTEX_POINT ( 'NONE', #460 ) ;
#639 = DIRECTION ( 'NONE',  ( -0.000000000000000000, -0.000000000000000000, 1.000000000000000000 ) ) ;
#640 = COLOUR_RGB ( '',1.000000000000000000, 1.000000000000000000, 1.000000000000000000 ) ;
#641 = DIRECTION ( 'NONE',  ( 1.000000000000000000, 0.000000000000000000, -0.000000000000000000 ) ) ;
#642 = VERTEX_POINT ( 'NONE', #50 ) ;
#643 = LINE ( 'NONE', #299, #448 ) ;
#644 = CARTESIAN_POINT ( 'NONE',  ( 2.939152317953647599E-16, -2.400000000000000355, 1.500000000000000000 ) ) ;
#645 = ORIENTED_EDGE ( 'NONE', *, *, #700, .F. ) ;
#646 = FILL_AREA_STYLE ('',( #525 ) ) ;
#647 = FACE_OUTER_BOUND ( 'NONE', #336, .T. ) ;
#648 = PLANE ( 'NONE',  #747 ) ;
#649 = EDGE_CURVE ( 'NONE', #638, #266, #41, .T. ) ;
#650 = LINE ( 'NONE', #705, #185 ) ;
#651 = VECTOR ( 'NONE', #82, 1000.000000000000000 ) ;
#652 = FACE_OUTER_BOUND ( 'NONE', #449, .T. ) ;
#653 = VECTOR ( 'NONE', #382, 1000.000000000000000 ) ;
#654 = LINE ( 'NONE', #670, #271 ) ;
#655 = VERTEX_POINT ( 'NONE', #123 ) ;
#656 = DIRECTION ( 'NONE',  ( 1.000000000000000000, 0.000000000000000000, 0.000000000000000000 ) ) ;
#657 = CARTESIAN_POINT ( 'NONE',  ( 0.000000000000000000, 0.000000000000000000, 2.400000000000000799 ) ) ;
#658 = EDGE_CURVE ( 'NONE', #418, #467, #463, .T. ) ;
#659 = DIRECTION ( 'NONE',  ( 0.000000000000000000, 1.000000000000000000, 1.807003620809173892E-16 ) ) ;
#660 = CARTESIAN_POINT ( 'NONE',  ( 0.000000000000000000, 0.000000000000000000, 1.500000000000000000 ) ) ;
#661 = ORIENTED_EDGE ( 'NONE', *, *, #198, .T. ) ;
#662 = PRODUCT_DEFINITION_CONTEXT ( 'detailed design', #724, 'design' ) ;
#663 = FILL_AREA_STYLE ('',( #721 ) ) ;
#664 = DIRECTION ( 'NONE',  ( -1.000000000000000000, 0.000000000000000000, 0.000000000000000000 ) ) ;
#665 = VECTOR ( 'NONE', #703, 1000.000000000000000 ) ;
#666 = LINE ( 'NONE', #311, #496 ) ;
#667 = ORIENTED_EDGE ( 'NONE', *, *, #249, .F. ) ;
#668 = CARTESIAN_POINT ( 'NONE',  ( -1.120000000000000107, 0.2399999999999999911, -25.00000000000000000 ) ) ;
#669 = EDGE_CURVE ( 'NONE', #187, #266, #466, .T. ) ;
#670 = CARTESIAN_POINT ( 'NONE',  ( 1.120000000000000107, -0.2399999999999999911, -25.00000000000000000 ) ) ;
#671 = ORIENTED_EDGE ( 'NONE', *, *, #717, .F. ) ;
#672 = CARTESIAN_POINT ( 'NONE',  ( 1.600000000000000089, 0.2399999999999999911, -25.00000000000000000 ) ) ;
#673 = DIRECTION ( 'NONE',  ( 1.000000000000000000, 0.000000000000000000, -0.000000000000000000 ) ) ;
#674 = EDGE_CURVE ( 'NONE', #270, #638, #277, .T. ) ;
#675 = ORIENTED_EDGE ( 'NONE', *, *, #453, .F. ) ;
#676 = PLANE ( 'NONE',  #620 ) ;
#677 = CIRCLE ( 'NONE', #577, 2.899999999999999911 ) ;
#678 = ORIENTED_EDGE ( 'NONE', *, *, #394, .T. ) ;
#679 = PRESENTATION_LAYER_ASSIGNMENT (  '', '', ( #17 ) ) ;
#680 = ORIENTED_EDGE ( 'NONE', *, *, #4, .F. ) ;
#681 = EDGE_CURVE ( 'NONE', #153, #503, #109, .T. ) ;
#682 = FACE_OUTER_BOUND ( 'NONE', #746, .T. ) ;
#683 = EDGE_LOOP ( 'NONE', ( #523, #290 ) ) ;
#684 = CARTESIAN_POINT ( 'NONE',  ( 1.120000000000000107, -0.2399999999999999911, -27.00000000000000355 ) ) ;
#685 =( NAMED_UNIT ( * ) PLANE_ANGLE_UNIT ( ) SI_UNIT ( $, .RADIAN. ) );
#686 = ORIENTED_EDGE ( 'NONE', *, *, #447, .T. ) ;
#687 = CARTESIAN_POINT ( 'NONE',  ( 0.000000000000000000, 0.000000000000000000, -25.00000000000000000 ) ) ;
#688 = VECTOR ( 'NONE', #256, 1000.000000000000000 ) ;
#689 = PLANE ( 'NONE',  #377 ) ;
#690 = ORIENTED_EDGE ( 'NONE', *, *, #198, .F. ) ;
#691 = ADVANCED_FACE ( 'NONE', ( #7 ), #297, .F. ) ;
#692 = FACE_OUTER_BOUND ( 'NONE', #566, .T. ) ;
#693 = FACE_OUTER_BOUND ( 'NONE', #211, .T. ) ;
#694 = DIRECTION ( 'NONE',  ( -0.000000000000000000, 1.410199344472709828E-16, -1.000000000000000000 ) ) ;
#695 = ORIENTED_EDGE ( 'NONE', *, *, #14, .F. ) ;
#696 = CARTESIAN_POINT ( 'NONE',  ( 1.600000000000000089, -0.2399999999999999911, 0.000000000000000000 ) ) ;
#697 = CARTESIAN_POINT ( 'NONE',  ( 0.000000000000000000, 0.000000000000000000, 0.000000000000000000 ) ) ;
#698 = ORIENTED_EDGE ( 'NONE', *, *, #681, .F. ) ;
#699 = CARTESIAN_POINT ( 'NONE',  ( 0.000000000000000000, 2.400000000000000355, 2.400000000000000799 ) ) ;
#700 = EDGE_CURVE ( 'NONE', #352, #89, #475, .T. ) ;
#701 = AXIS2_PLACEMENT_3D ( 'NONE', #180, #234, #238 ) ;
#702 = AXIS2_PLACEMENT_3D ( 'NONE', #528, #354, #580 ) ;
#703 = DIRECTION ( 'NONE',  ( -0.000000000000000000, -0.000000000000000000, 1.000000000000000000 ) ) ;
#704 = ORIENTED_EDGE ( 'NONE', *, *, #509, .F. ) ;
#705 = CARTESIAN_POINT ( 'NONE',  ( 1.600000000000000089, -0.2399999999999999911, -25.00000000000000000 ) ) ;
#706 = ADVANCED_FACE ( 'NONE', ( #241 ), #584, .F. ) ;
#707 = CARTESIAN_POINT ( 'NONE',  ( -1.600000000000000089, -0.2399999999999999911, -25.00000000000000000 ) ) ;
#708 = ORIENTED_EDGE ( 'NONE', *, *, #738, .T. ) ;
#709 = CARTESIAN_POINT ( 'NONE',  ( 1.600000000000000089, -0.2399999999999999911, -25.00000000000000000 ) ) ;
#710 = FACE_OUTER_BOUND ( 'NONE', #92, .T. ) ;
#711 = ORIENTED_EDGE ( 'NONE', *, *, #738, .F. ) ;
#712 = AXIS2_PLACEMENT_3D ( 'NONE', #172, #346, #571 ) ;
#713 = VECTOR ( 'NONE', #283, 1000.000000000000000 ) ;
#714 = FACE_OUTER_BOUND ( 'NONE', #531, .T. ) ;
#715 = AXIS2_PLACEMENT_3D ( 'NONE', #335, #673, #166 ) ;
#716 = CARTESIAN_POINT ( 'NONE',  ( 1.600000000000000089, 0.2399999999999999911, -27.00000000000000355 ) ) ;
#717 = EDGE_CURVE ( 'NONE', #195, #295, #176, .T. ) ;
#718 = CARTESIAN_POINT ( 'NONE',  ( 1.120000000000000107, -0.2399999999999999911, -25.00000000000000000 ) ) ;
#719 = DIRECTION ( 'NONE',  ( -0.000000000000000000, -0.000000000000000000, 1.000000000000000000 ) ) ;
#720 = EDGE_LOOP ( 'NONE', ( #435, #622, #282, #298 ) ) ;
#721 = FILL_AREA_STYLE_COLOUR ( '', #618 ) ;
#722 = LINE ( 'NONE', #77, #129 ) ;
#723 = DIRECTION ( 'NONE',  ( -0.000000000000000000, 1.410199344472709828E-16, -1.000000000000000000 ) ) ;
#724 = APPLICATION_CONTEXT ( 'automotive_design' ) ;
#725 = EDGE_LOOP ( 'NONE', ( #560, #549, #634, #396 ) ) ;
#726 = CARTESIAN_POINT ( 'NONE',  ( 0.000000000000000000, 0.000000000000000000, 1.500000000000000444 ) ) ;
#727 = LINE ( 'NONE', #596, #506 ) ;
#728 = ORIENTED_EDGE ( 'NONE', *, *, #730, .T. ) ;
#729 = COLOUR_RGB ( '',1.000000000000000000, 1.000000000000000000, 1.000000000000000000 ) ;
#730 = EDGE_CURVE ( 'NONE', #413, #317, #519, .T. ) ;
#731 = CARTESIAN_POINT ( 'NONE',  ( -2.399999999999999467, -1.627882059609971011, 1.500000000000000000 ) ) ;
#732 = VERTEX_POINT ( 'NONE', #420 ) ;
#733 = EDGE_LOOP ( 'NONE', ( #42, #579, #753, #498 ) ) ;
#734 = EDGE_CURVE ( 'NONE', #489, #65, #637, .T. ) ;
#735 =( LENGTH_UNIT ( ) NAMED_UNIT ( * ) SI_UNIT ( .MILLI., .METRE. ) );
#736 = MECHANICAL_DESIGN_GEOMETRIC_PRESENTATION_REPRESENTATION (  '', ( #739 ), #411 ) ;
#737 = ORIENTED_EDGE ( 'NONE', *, *, #674, .T. ) ;
#738 = EDGE_CURVE ( 'NONE', #617, #347, #215, .T. ) ;
#739 = STYLED_ITEM ( 'NONE', ( #450 ), #554 ) ;
#740 = LINE ( 'NONE', #386, #391 ) ;
#741 = ORIENTED_EDGE ( 'NONE', *, *, #394, .F. ) ;
#742 = CARTESIAN_POINT ( 'NONE',  ( -2.399999999999999467, 1.627882059609971233, 0.000000000000000000 ) ) ;
#743 = VERTEX_POINT ( 'NONE', #250 ) ;
#744 = FACE_OUTER_BOUND ( 'NONE', #431, .T. ) ;
#745 = CARTESIAN_POINT ( 'NONE',  ( 0.000000000000000000, 0.000000000000000000, 1.500000000000000000 ) ) ;
#746 = EDGE_LOOP ( 'NONE', ( #711, #95, #278 ) ) ;
#747 = AXIS2_PLACEMENT_3D ( 'NONE', #12, #70, #539 ) ;
#748 = DIRECTION ( 'NONE',  ( 0.000000000000000000, 0.000000000000000000, 1.000000000000000000 ) ) ;
#749 = PRESENTATION_LAYER_ASSIGNMENT (  '', '', ( #739 ) ) ;
#750 = DIRECTION ( 'NONE',  ( 1.000000000000000000, 0.000000000000000000, 0.000000000000000000 ) ) ;
#751 = ORIENTED_EDGE ( 'NONE', *, *, #567, .F. ) ;
#752 = DIRECTION ( 'NONE',  ( 1.000000000000000000, 0.000000000000000000, -0.000000000000000000 ) ) ;
#753 = ORIENTED_EDGE ( 'NONE', *, *, #730, .F. ) ;
#754 = PRESENTATION_STYLE_ASSIGNMENT (( #9 ) ) ;
ENDSEC;
END-ISO-10303-21;
